%TF.GenerationSoftware,KiCad,Pcbnew,(5.1.10)-1*%
%TF.CreationDate,2021-08-30T23:33:42-07:00*%
%TF.ProjectId,MGB_USB_C,4d47425f-5553-4425-9f43-2e6b69636164,rev?*%
%TF.SameCoordinates,Original*%
%TF.FileFunction,Copper,L2,Bot*%
%TF.FilePolarity,Positive*%
%FSLAX46Y46*%
G04 Gerber Fmt 4.6, Leading zero omitted, Abs format (unit mm)*
G04 Created by KiCad (PCBNEW (5.1.10)-1) date 2021-08-30 23:33:42*
%MOMM*%
%LPD*%
G01*
G04 APERTURE LIST*
%TA.AperFunction,ComponentPad*%
%ADD10C,2.000000*%
%TD*%
%TA.AperFunction,ComponentPad*%
%ADD11C,2.250000*%
%TD*%
%TA.AperFunction,SMDPad,CuDef*%
%ADD12C,2.000000*%
%TD*%
%TA.AperFunction,ComponentPad*%
%ADD13C,3.000000*%
%TD*%
%TA.AperFunction,ViaPad*%
%ADD14C,0.800000*%
%TD*%
%TA.AperFunction,Conductor*%
%ADD15C,0.500000*%
%TD*%
%TA.AperFunction,Conductor*%
%ADD16C,0.100000*%
%TD*%
G04 APERTURE END LIST*
D10*
%TO.P,P1,MH1*%
%TO.N,GND*%
X141352080Y-106243280D03*
%TO.P,P1,MH2*%
X149992080Y-106243280D03*
%TO.P,P1,MH3*%
X149992080Y-102443280D03*
%TO.P,P1,MH4*%
X141352080Y-102443280D03*
%TD*%
D11*
%TO.P,J1,2*%
%TO.N,GND*%
X142580360Y-98292920D03*
D12*
%TO.P,J1,4*%
X143139160Y-103728520D03*
%TO.P,J1,5*%
X148193760Y-103728520D03*
D11*
%TO.P,J1,3*%
X148574760Y-99308920D03*
D13*
%TO.P,J1,1*%
%TO.N,Net-(J1-Pad1)*%
X145653760Y-96997520D03*
%TD*%
D14*
%TO.N,Net-(J1-Pad1)*%
X145646140Y-103487220D03*
%TD*%
D15*
%TO.N,GND*%
X148193760Y-99689920D02*
X148574760Y-99308920D01*
X143139160Y-98851720D02*
X142580360Y-98292920D01*
X143139160Y-103728520D02*
X143139160Y-104456200D01*
X148193760Y-103728520D02*
X148193760Y-104444960D01*
%TO.N,Net-(J1-Pad1)*%
X145646140Y-97005140D02*
X145653760Y-96997520D01*
X145646140Y-103487220D02*
X145646140Y-97005140D01*
%TD*%
D16*
%TO.N,GND*%
X144294446Y-95881960D02*
X144102930Y-96168584D01*
X143971011Y-96487064D01*
X143903760Y-96825160D01*
X143903760Y-97169880D01*
X143953363Y-97419255D01*
X143812263Y-97349517D01*
X142868860Y-98292920D01*
X143812263Y-99236323D01*
X144058442Y-99114651D01*
X144190352Y-98810502D01*
X144260392Y-98486462D01*
X144265869Y-98154985D01*
X144244722Y-98038663D01*
X144276000Y-98085474D01*
X144276000Y-102880180D01*
X143427660Y-103728520D01*
X144281400Y-104582260D01*
X144514816Y-104475835D01*
X144533986Y-104430426D01*
X145547589Y-104993539D01*
X145600320Y-105015381D01*
X145648535Y-105024161D01*
X145697538Y-105023366D01*
X145745443Y-105013026D01*
X145790411Y-104993539D01*
X146011413Y-104870760D01*
X147340020Y-104870760D01*
X147446445Y-105104176D01*
X147729182Y-105223537D01*
X148029771Y-105285445D01*
X148336663Y-105287522D01*
X148638064Y-105229687D01*
X148922390Y-105114163D01*
X148941075Y-105104176D01*
X149047500Y-104870760D01*
X148193760Y-104017020D01*
X147340020Y-104870760D01*
X146011413Y-104870760D01*
X146798503Y-104433488D01*
X146808117Y-104457150D01*
X146818104Y-104475835D01*
X147051520Y-104582260D01*
X147905260Y-103728520D01*
X148482260Y-103728520D01*
X149336000Y-104582260D01*
X149569416Y-104475835D01*
X149688777Y-104193098D01*
X149750685Y-103892509D01*
X149752762Y-103585617D01*
X149694927Y-103284216D01*
X149579403Y-102999890D01*
X149569416Y-102981205D01*
X149336000Y-102874780D01*
X148482260Y-103728520D01*
X147905260Y-103728520D01*
X147062000Y-102885260D01*
X147062000Y-102586280D01*
X147340020Y-102586280D01*
X148193760Y-103440020D01*
X149047500Y-102586280D01*
X148941075Y-102352864D01*
X148658338Y-102233503D01*
X148357749Y-102171595D01*
X148050857Y-102169518D01*
X147749456Y-102227353D01*
X147465130Y-102342877D01*
X147446445Y-102352864D01*
X147340020Y-102586280D01*
X147062000Y-102586280D01*
X147062000Y-100540823D01*
X147631357Y-100540823D01*
X147753029Y-100787002D01*
X148057178Y-100918912D01*
X148381218Y-100988952D01*
X148712695Y-100994429D01*
X149038870Y-100935132D01*
X149347211Y-100813341D01*
X149396491Y-100787002D01*
X149518163Y-100540823D01*
X148574760Y-99597420D01*
X147631357Y-100540823D01*
X147062000Y-100540823D01*
X147062000Y-100060259D01*
X147070339Y-100081371D01*
X147096678Y-100130651D01*
X147342857Y-100252323D01*
X148286260Y-99308920D01*
X148863260Y-99308920D01*
X149806663Y-100252323D01*
X150052842Y-100130651D01*
X150184752Y-99826502D01*
X150254792Y-99502462D01*
X150260269Y-99170985D01*
X150200972Y-98844810D01*
X150079181Y-98536469D01*
X150052842Y-98487189D01*
X149806663Y-98365517D01*
X148863260Y-99308920D01*
X148286260Y-99308920D01*
X147342857Y-98365517D01*
X147096678Y-98487189D01*
X147062000Y-98567147D01*
X147062000Y-98077017D01*
X147631357Y-98077017D01*
X148574760Y-99020420D01*
X149518163Y-98077017D01*
X149396491Y-97830838D01*
X149092342Y-97698928D01*
X148768302Y-97628888D01*
X148436825Y-97623411D01*
X148110650Y-97682708D01*
X147802309Y-97804499D01*
X147753029Y-97830838D01*
X147631357Y-98077017D01*
X147062000Y-98077017D01*
X147062000Y-98039857D01*
X147204590Y-97826456D01*
X147336509Y-97507976D01*
X147403760Y-97169880D01*
X147403760Y-96825160D01*
X147336509Y-96487064D01*
X147204590Y-96168584D01*
X147013074Y-95881960D01*
X146970134Y-95839020D01*
X147824519Y-95839020D01*
X148418581Y-95897269D01*
X148981779Y-96067307D01*
X149501225Y-96343502D01*
X149957129Y-96715328D01*
X150332135Y-97168633D01*
X150611944Y-97686128D01*
X150785913Y-98248134D01*
X150848274Y-98841461D01*
X150848321Y-98854873D01*
X150848320Y-105414899D01*
X150831784Y-105583540D01*
X150785295Y-105737521D01*
X150709780Y-105879545D01*
X150608121Y-106004191D01*
X150484186Y-106106720D01*
X150342696Y-106183223D01*
X150189038Y-106230788D01*
X150020903Y-106248460D01*
X141338496Y-106247701D01*
X141169840Y-106231164D01*
X141015859Y-106184675D01*
X140873835Y-106109160D01*
X140749189Y-106007501D01*
X140646660Y-105883566D01*
X140570157Y-105742076D01*
X140522592Y-105588418D01*
X140504920Y-105420284D01*
X140504920Y-104870760D01*
X142285420Y-104870760D01*
X142391845Y-105104176D01*
X142674582Y-105223537D01*
X142975171Y-105285445D01*
X143282063Y-105287522D01*
X143583464Y-105229687D01*
X143867790Y-105114163D01*
X143886475Y-105104176D01*
X143992900Y-104870760D01*
X143139160Y-104017020D01*
X142285420Y-104870760D01*
X140504920Y-104870760D01*
X140504920Y-103871423D01*
X141580158Y-103871423D01*
X141637993Y-104172824D01*
X141753517Y-104457150D01*
X141763504Y-104475835D01*
X141996920Y-104582260D01*
X142850660Y-103728520D01*
X141996920Y-102874780D01*
X141763504Y-102981205D01*
X141644143Y-103263942D01*
X141582235Y-103564531D01*
X141580158Y-103871423D01*
X140504920Y-103871423D01*
X140504920Y-102586280D01*
X142285420Y-102586280D01*
X143139160Y-103440020D01*
X143992900Y-102586280D01*
X143886475Y-102352864D01*
X143603738Y-102233503D01*
X143303149Y-102171595D01*
X142996257Y-102169518D01*
X142694856Y-102227353D01*
X142410530Y-102342877D01*
X142391845Y-102352864D01*
X142285420Y-102586280D01*
X140504920Y-102586280D01*
X140504920Y-99524823D01*
X141636957Y-99524823D01*
X141758629Y-99771002D01*
X142062778Y-99902912D01*
X142386818Y-99972952D01*
X142718295Y-99978429D01*
X143044470Y-99919132D01*
X143352811Y-99797341D01*
X143402091Y-99771002D01*
X143523763Y-99524823D01*
X142580360Y-98581420D01*
X141636957Y-99524823D01*
X140504920Y-99524823D01*
X140504920Y-98862821D01*
X140547275Y-98430855D01*
X140894851Y-98430855D01*
X140954148Y-98757030D01*
X141075939Y-99065371D01*
X141102278Y-99114651D01*
X141348457Y-99236323D01*
X142291860Y-98292920D01*
X141348457Y-97349517D01*
X141102278Y-97471189D01*
X140970368Y-97775338D01*
X140900328Y-98099378D01*
X140894851Y-98430855D01*
X140547275Y-98430855D01*
X140563169Y-98268759D01*
X140733207Y-97705561D01*
X141009402Y-97186115D01*
X141111429Y-97061017D01*
X141636957Y-97061017D01*
X142580360Y-98004420D01*
X143523763Y-97061017D01*
X143402091Y-96814838D01*
X143097942Y-96682928D01*
X142773902Y-96612888D01*
X142442425Y-96607411D01*
X142116250Y-96666708D01*
X141807909Y-96788499D01*
X141758629Y-96814838D01*
X141636957Y-97061017D01*
X141111429Y-97061017D01*
X141381228Y-96730211D01*
X141834533Y-96355205D01*
X142352028Y-96075396D01*
X142914034Y-95901427D01*
X143507361Y-95839066D01*
X143520487Y-95839020D01*
X144337386Y-95839020D01*
X144294446Y-95881960D01*
%TA.AperFunction,Conductor*%
G36*
X144294446Y-95881960D02*
G01*
X144102930Y-96168584D01*
X143971011Y-96487064D01*
X143903760Y-96825160D01*
X143903760Y-97169880D01*
X143953363Y-97419255D01*
X143812263Y-97349517D01*
X142868860Y-98292920D01*
X143812263Y-99236323D01*
X144058442Y-99114651D01*
X144190352Y-98810502D01*
X144260392Y-98486462D01*
X144265869Y-98154985D01*
X144244722Y-98038663D01*
X144276000Y-98085474D01*
X144276000Y-102880180D01*
X143427660Y-103728520D01*
X144281400Y-104582260D01*
X144514816Y-104475835D01*
X144533986Y-104430426D01*
X145547589Y-104993539D01*
X145600320Y-105015381D01*
X145648535Y-105024161D01*
X145697538Y-105023366D01*
X145745443Y-105013026D01*
X145790411Y-104993539D01*
X146011413Y-104870760D01*
X147340020Y-104870760D01*
X147446445Y-105104176D01*
X147729182Y-105223537D01*
X148029771Y-105285445D01*
X148336663Y-105287522D01*
X148638064Y-105229687D01*
X148922390Y-105114163D01*
X148941075Y-105104176D01*
X149047500Y-104870760D01*
X148193760Y-104017020D01*
X147340020Y-104870760D01*
X146011413Y-104870760D01*
X146798503Y-104433488D01*
X146808117Y-104457150D01*
X146818104Y-104475835D01*
X147051520Y-104582260D01*
X147905260Y-103728520D01*
X148482260Y-103728520D01*
X149336000Y-104582260D01*
X149569416Y-104475835D01*
X149688777Y-104193098D01*
X149750685Y-103892509D01*
X149752762Y-103585617D01*
X149694927Y-103284216D01*
X149579403Y-102999890D01*
X149569416Y-102981205D01*
X149336000Y-102874780D01*
X148482260Y-103728520D01*
X147905260Y-103728520D01*
X147062000Y-102885260D01*
X147062000Y-102586280D01*
X147340020Y-102586280D01*
X148193760Y-103440020D01*
X149047500Y-102586280D01*
X148941075Y-102352864D01*
X148658338Y-102233503D01*
X148357749Y-102171595D01*
X148050857Y-102169518D01*
X147749456Y-102227353D01*
X147465130Y-102342877D01*
X147446445Y-102352864D01*
X147340020Y-102586280D01*
X147062000Y-102586280D01*
X147062000Y-100540823D01*
X147631357Y-100540823D01*
X147753029Y-100787002D01*
X148057178Y-100918912D01*
X148381218Y-100988952D01*
X148712695Y-100994429D01*
X149038870Y-100935132D01*
X149347211Y-100813341D01*
X149396491Y-100787002D01*
X149518163Y-100540823D01*
X148574760Y-99597420D01*
X147631357Y-100540823D01*
X147062000Y-100540823D01*
X147062000Y-100060259D01*
X147070339Y-100081371D01*
X147096678Y-100130651D01*
X147342857Y-100252323D01*
X148286260Y-99308920D01*
X148863260Y-99308920D01*
X149806663Y-100252323D01*
X150052842Y-100130651D01*
X150184752Y-99826502D01*
X150254792Y-99502462D01*
X150260269Y-99170985D01*
X150200972Y-98844810D01*
X150079181Y-98536469D01*
X150052842Y-98487189D01*
X149806663Y-98365517D01*
X148863260Y-99308920D01*
X148286260Y-99308920D01*
X147342857Y-98365517D01*
X147096678Y-98487189D01*
X147062000Y-98567147D01*
X147062000Y-98077017D01*
X147631357Y-98077017D01*
X148574760Y-99020420D01*
X149518163Y-98077017D01*
X149396491Y-97830838D01*
X149092342Y-97698928D01*
X148768302Y-97628888D01*
X148436825Y-97623411D01*
X148110650Y-97682708D01*
X147802309Y-97804499D01*
X147753029Y-97830838D01*
X147631357Y-98077017D01*
X147062000Y-98077017D01*
X147062000Y-98039857D01*
X147204590Y-97826456D01*
X147336509Y-97507976D01*
X147403760Y-97169880D01*
X147403760Y-96825160D01*
X147336509Y-96487064D01*
X147204590Y-96168584D01*
X147013074Y-95881960D01*
X146970134Y-95839020D01*
X147824519Y-95839020D01*
X148418581Y-95897269D01*
X148981779Y-96067307D01*
X149501225Y-96343502D01*
X149957129Y-96715328D01*
X150332135Y-97168633D01*
X150611944Y-97686128D01*
X150785913Y-98248134D01*
X150848274Y-98841461D01*
X150848321Y-98854873D01*
X150848320Y-105414899D01*
X150831784Y-105583540D01*
X150785295Y-105737521D01*
X150709780Y-105879545D01*
X150608121Y-106004191D01*
X150484186Y-106106720D01*
X150342696Y-106183223D01*
X150189038Y-106230788D01*
X150020903Y-106248460D01*
X141338496Y-106247701D01*
X141169840Y-106231164D01*
X141015859Y-106184675D01*
X140873835Y-106109160D01*
X140749189Y-106007501D01*
X140646660Y-105883566D01*
X140570157Y-105742076D01*
X140522592Y-105588418D01*
X140504920Y-105420284D01*
X140504920Y-104870760D01*
X142285420Y-104870760D01*
X142391845Y-105104176D01*
X142674582Y-105223537D01*
X142975171Y-105285445D01*
X143282063Y-105287522D01*
X143583464Y-105229687D01*
X143867790Y-105114163D01*
X143886475Y-105104176D01*
X143992900Y-104870760D01*
X143139160Y-104017020D01*
X142285420Y-104870760D01*
X140504920Y-104870760D01*
X140504920Y-103871423D01*
X141580158Y-103871423D01*
X141637993Y-104172824D01*
X141753517Y-104457150D01*
X141763504Y-104475835D01*
X141996920Y-104582260D01*
X142850660Y-103728520D01*
X141996920Y-102874780D01*
X141763504Y-102981205D01*
X141644143Y-103263942D01*
X141582235Y-103564531D01*
X141580158Y-103871423D01*
X140504920Y-103871423D01*
X140504920Y-102586280D01*
X142285420Y-102586280D01*
X143139160Y-103440020D01*
X143992900Y-102586280D01*
X143886475Y-102352864D01*
X143603738Y-102233503D01*
X143303149Y-102171595D01*
X142996257Y-102169518D01*
X142694856Y-102227353D01*
X142410530Y-102342877D01*
X142391845Y-102352864D01*
X142285420Y-102586280D01*
X140504920Y-102586280D01*
X140504920Y-99524823D01*
X141636957Y-99524823D01*
X141758629Y-99771002D01*
X142062778Y-99902912D01*
X142386818Y-99972952D01*
X142718295Y-99978429D01*
X143044470Y-99919132D01*
X143352811Y-99797341D01*
X143402091Y-99771002D01*
X143523763Y-99524823D01*
X142580360Y-98581420D01*
X141636957Y-99524823D01*
X140504920Y-99524823D01*
X140504920Y-98862821D01*
X140547275Y-98430855D01*
X140894851Y-98430855D01*
X140954148Y-98757030D01*
X141075939Y-99065371D01*
X141102278Y-99114651D01*
X141348457Y-99236323D01*
X142291860Y-98292920D01*
X141348457Y-97349517D01*
X141102278Y-97471189D01*
X140970368Y-97775338D01*
X140900328Y-98099378D01*
X140894851Y-98430855D01*
X140547275Y-98430855D01*
X140563169Y-98268759D01*
X140733207Y-97705561D01*
X141009402Y-97186115D01*
X141111429Y-97061017D01*
X141636957Y-97061017D01*
X142580360Y-98004420D01*
X143523763Y-97061017D01*
X143402091Y-96814838D01*
X143097942Y-96682928D01*
X142773902Y-96612888D01*
X142442425Y-96607411D01*
X142116250Y-96666708D01*
X141807909Y-96788499D01*
X141758629Y-96814838D01*
X141636957Y-97061017D01*
X141111429Y-97061017D01*
X141381228Y-96730211D01*
X141834533Y-96355205D01*
X142352028Y-96075396D01*
X142914034Y-95901427D01*
X143507361Y-95839066D01*
X143520487Y-95839020D01*
X144337386Y-95839020D01*
X144294446Y-95881960D01*
G37*
%TD.AperFunction*%
%TD*%
%TO.N,Net-(J1-Pad1)*%
X146762000Y-104110580D02*
X145669000Y-104717802D01*
X144576000Y-104110580D01*
X144576000Y-96316000D01*
X146762000Y-96316000D01*
X146762000Y-104110580D01*
%TA.AperFunction,Conductor*%
G36*
X146762000Y-104110580D02*
G01*
X145669000Y-104717802D01*
X144576000Y-104110580D01*
X144576000Y-96316000D01*
X146762000Y-96316000D01*
X146762000Y-104110580D01*
G37*
%TD.AperFunction*%
%TD*%
M02*
