%TF.GenerationSoftware,KiCad,Pcbnew,(5.1.10)-1*%
%TF.CreationDate,2021-08-30T23:33:42-07:00*%
%TF.ProjectId,MGB_USB_C,4d47425f-5553-4425-9f43-2e6b69636164,rev?*%
%TF.SameCoordinates,Original*%
%TF.FileFunction,Soldermask,Top*%
%TF.FilePolarity,Negative*%
%FSLAX46Y46*%
G04 Gerber Fmt 4.6, Leading zero omitted, Abs format (unit mm)*
G04 Created by KiCad (PCBNEW (5.1.10)-1) date 2021-08-30 23:33:42*
%MOMM*%
%LPD*%
G01*
G04 APERTURE LIST*
%ADD10R,0.700000X1.200000*%
%ADD11R,0.760000X1.200000*%
%ADD12R,0.800000X1.200000*%
%ADD13C,2.000000*%
%ADD14C,2.250000*%
%ADD15C,3.000000*%
G04 APERTURE END LIST*
%TO.C,R2*%
G36*
G01*
X146796580Y-100227120D02*
X146796580Y-100702120D01*
G75*
G02*
X146559080Y-100939620I-237500J0D01*
G01*
X146059080Y-100939620D01*
G75*
G02*
X145821580Y-100702120I0J237500D01*
G01*
X145821580Y-100227120D01*
G75*
G02*
X146059080Y-99989620I237500J0D01*
G01*
X146559080Y-99989620D01*
G75*
G02*
X146796580Y-100227120I0J-237500D01*
G01*
G37*
G36*
G01*
X148621580Y-100227120D02*
X148621580Y-100702120D01*
G75*
G02*
X148384080Y-100939620I-237500J0D01*
G01*
X147884080Y-100939620D01*
G75*
G02*
X147646580Y-100702120I0J237500D01*
G01*
X147646580Y-100227120D01*
G75*
G02*
X147884080Y-99989620I237500J0D01*
G01*
X148384080Y-99989620D01*
G75*
G02*
X148621580Y-100227120I0J-237500D01*
G01*
G37*
%TD*%
%TO.C,R1*%
G36*
G01*
X144170580Y-100689420D02*
X144170580Y-100214420D01*
G75*
G02*
X144408080Y-99976920I237500J0D01*
G01*
X144908080Y-99976920D01*
G75*
G02*
X145145580Y-100214420I0J-237500D01*
G01*
X145145580Y-100689420D01*
G75*
G02*
X144908080Y-100926920I-237500J0D01*
G01*
X144408080Y-100926920D01*
G75*
G02*
X144170580Y-100689420I0J237500D01*
G01*
G37*
G36*
G01*
X142345580Y-100689420D02*
X142345580Y-100214420D01*
G75*
G02*
X142583080Y-99976920I237500J0D01*
G01*
X143083080Y-99976920D01*
G75*
G02*
X143320580Y-100214420I0J-237500D01*
G01*
X143320580Y-100689420D01*
G75*
G02*
X143083080Y-100926920I-237500J0D01*
G01*
X142583080Y-100926920D01*
G75*
G02*
X142345580Y-100689420I0J237500D01*
G01*
G37*
%TD*%
D10*
%TO.C,P1*%
X145172080Y-102293280D03*
D11*
X147192080Y-102293280D03*
D12*
X148422080Y-102293280D03*
D10*
X146172080Y-102293280D03*
D11*
X144152080Y-102293280D03*
D12*
X142922080Y-102293280D03*
D13*
X141352080Y-106243280D03*
X149992080Y-106243280D03*
X149992080Y-102443280D03*
X141352080Y-102443280D03*
%TD*%
D14*
%TO.C,J1*%
X142580360Y-98292920D03*
X148574760Y-99308920D03*
D15*
X145653760Y-96997520D03*
%TD*%
M02*
