%TF.GenerationSoftware,KiCad,Pcbnew,(5.1.10)-1*%
%TF.CreationDate,2021-08-30T23:33:42-07:00*%
%TF.ProjectId,MGB_USB_C,4d47425f-5553-4425-9f43-2e6b69636164,rev?*%
%TF.SameCoordinates,Original*%
%TF.FileFunction,Legend,Top*%
%TF.FilePolarity,Positive*%
%FSLAX46Y46*%
G04 Gerber Fmt 4.6, Leading zero omitted, Abs format (unit mm)*
G04 Created by KiCad (PCBNEW (5.1.10)-1) date 2021-08-30 23:33:42*
%MOMM*%
%LPD*%
G01*
G04 APERTURE LIST*
%ADD10C,0.120000*%
%ADD11C,0.100000*%
%ADD12C,0.200000*%
%ADD13C,0.010000*%
%ADD14C,0.150000*%
G04 APERTURE END LIST*
D10*
%TO.C,R2*%
X147476304Y-99942120D02*
X146966856Y-99942120D01*
X147476304Y-100987120D02*
X146966856Y-100987120D01*
%TO.C,R1*%
X143490856Y-100974420D02*
X144000304Y-100974420D01*
X143490856Y-99929420D02*
X144000304Y-99929420D01*
D11*
%TO.C,P1*%
X141202080Y-108843280D02*
X149992080Y-108843280D01*
D12*
X148422080Y-100943280D02*
X148422080Y-100943280D01*
X148422080Y-100743280D02*
X148422080Y-100743280D01*
X148422080Y-100743280D02*
G75*
G02*
X148422080Y-100943280I0J-100000D01*
G01*
X148422080Y-100943280D02*
G75*
G02*
X148422080Y-100743280I0J100000D01*
G01*
D13*
%TO.C,J1*%
G36*
X141509368Y-105268922D02*
G01*
X141654430Y-105297506D01*
X141789578Y-105351478D01*
X141917420Y-105427023D01*
X142068665Y-105551953D01*
X142188640Y-105700543D01*
X142276671Y-105867198D01*
X142332086Y-106046323D01*
X142354213Y-106232322D01*
X142342378Y-106419599D01*
X142295909Y-106602559D01*
X142214133Y-106775607D01*
X142098268Y-106931083D01*
X141947550Y-107070011D01*
X141783826Y-107169590D01*
X141603426Y-107231409D01*
X141402679Y-107257058D01*
X141343399Y-107257982D01*
X141192422Y-107248998D01*
X141063491Y-107225311D01*
X141038621Y-107218017D01*
X140857365Y-107139586D01*
X140701482Y-107031347D01*
X140572239Y-106898288D01*
X140470898Y-106745400D01*
X140398727Y-106577671D01*
X140356988Y-106400090D01*
X140346948Y-106217647D01*
X140369872Y-106035332D01*
X140427023Y-105858132D01*
X140519667Y-105691039D01*
X140620280Y-105567895D01*
X140767074Y-105437208D01*
X140922868Y-105344751D01*
X141094427Y-105287644D01*
X141288515Y-105263009D01*
X141339994Y-105261601D01*
X141509368Y-105268922D01*
G37*
X141509368Y-105268922D02*
X141654430Y-105297506D01*
X141789578Y-105351478D01*
X141917420Y-105427023D01*
X142068665Y-105551953D01*
X142188640Y-105700543D01*
X142276671Y-105867198D01*
X142332086Y-106046323D01*
X142354213Y-106232322D01*
X142342378Y-106419599D01*
X142295909Y-106602559D01*
X142214133Y-106775607D01*
X142098268Y-106931083D01*
X141947550Y-107070011D01*
X141783826Y-107169590D01*
X141603426Y-107231409D01*
X141402679Y-107257058D01*
X141343399Y-107257982D01*
X141192422Y-107248998D01*
X141063491Y-107225311D01*
X141038621Y-107218017D01*
X140857365Y-107139586D01*
X140701482Y-107031347D01*
X140572239Y-106898288D01*
X140470898Y-106745400D01*
X140398727Y-106577671D01*
X140356988Y-106400090D01*
X140346948Y-106217647D01*
X140369872Y-106035332D01*
X140427023Y-105858132D01*
X140519667Y-105691039D01*
X140620280Y-105567895D01*
X140767074Y-105437208D01*
X140922868Y-105344751D01*
X141094427Y-105287644D01*
X141288515Y-105263009D01*
X141339994Y-105261601D01*
X141509368Y-105268922D01*
G36*
X150150326Y-105265935D02*
G01*
X150350196Y-105320365D01*
X150528836Y-105409303D01*
X150683050Y-105528957D01*
X150809640Y-105675537D01*
X150905410Y-105845248D01*
X150967163Y-106034301D01*
X150991701Y-106238902D01*
X150991994Y-106264287D01*
X150973654Y-106468085D01*
X150917850Y-106653276D01*
X150823402Y-106822589D01*
X150689132Y-106978756D01*
X150679480Y-106988058D01*
X150533724Y-107107077D01*
X150380964Y-107189681D01*
X150213064Y-107239005D01*
X150021889Y-107258184D01*
X149977443Y-107258674D01*
X149848634Y-107252945D01*
X149740017Y-107234305D01*
X149656238Y-107208863D01*
X149473620Y-107123656D01*
X149317594Y-107009281D01*
X149189636Y-106870650D01*
X149091223Y-106712672D01*
X149023833Y-106540261D01*
X148988944Y-106358326D01*
X148988031Y-106171779D01*
X149022573Y-105985532D01*
X149094046Y-105804496D01*
X149188456Y-105653674D01*
X149322639Y-105508705D01*
X149481828Y-105393579D01*
X149659389Y-105310970D01*
X149848692Y-105263550D01*
X150043105Y-105253994D01*
X150150326Y-105265935D01*
G37*
X150150326Y-105265935D02*
X150350196Y-105320365D01*
X150528836Y-105409303D01*
X150683050Y-105528957D01*
X150809640Y-105675537D01*
X150905410Y-105845248D01*
X150967163Y-106034301D01*
X150991701Y-106238902D01*
X150991994Y-106264287D01*
X150973654Y-106468085D01*
X150917850Y-106653276D01*
X150823402Y-106822589D01*
X150689132Y-106978756D01*
X150679480Y-106988058D01*
X150533724Y-107107077D01*
X150380964Y-107189681D01*
X150213064Y-107239005D01*
X150021889Y-107258184D01*
X149977443Y-107258674D01*
X149848634Y-107252945D01*
X149740017Y-107234305D01*
X149656238Y-107208863D01*
X149473620Y-107123656D01*
X149317594Y-107009281D01*
X149189636Y-106870650D01*
X149091223Y-106712672D01*
X149023833Y-106540261D01*
X148988944Y-106358326D01*
X148988031Y-106171779D01*
X149022573Y-105985532D01*
X149094046Y-105804496D01*
X149188456Y-105653674D01*
X149322639Y-105508705D01*
X149481828Y-105393579D01*
X149659389Y-105310970D01*
X149848692Y-105263550D01*
X150043105Y-105253994D01*
X150150326Y-105265935D01*
G36*
X143334582Y-102213836D02*
G01*
X143340244Y-102735386D01*
X143424910Y-102760725D01*
X143611101Y-102836531D01*
X143771549Y-102941831D01*
X143905093Y-103071829D01*
X144010568Y-103221730D01*
X144086809Y-103386737D01*
X144132654Y-103562055D01*
X144146938Y-103742887D01*
X144128497Y-103924439D01*
X144076168Y-104101915D01*
X143988786Y-104270518D01*
X143865189Y-104425453D01*
X143835951Y-104454444D01*
X143673303Y-104581679D01*
X143493353Y-104671797D01*
X143300905Y-104723499D01*
X143100763Y-104735482D01*
X142901515Y-104707373D01*
X142714443Y-104640976D01*
X142545712Y-104539452D01*
X142399801Y-104407674D01*
X142281188Y-104250513D01*
X142194354Y-104072842D01*
X142144454Y-103883835D01*
X142134796Y-103696534D01*
X142161931Y-103505430D01*
X142222752Y-103320436D01*
X142314152Y-103151467D01*
X142412211Y-103029250D01*
X142514744Y-102922890D01*
X142509132Y-102307588D01*
X142503521Y-101692287D01*
X143328921Y-101692287D01*
X143334582Y-102213836D01*
G37*
X143334582Y-102213836D02*
X143340244Y-102735386D01*
X143424910Y-102760725D01*
X143611101Y-102836531D01*
X143771549Y-102941831D01*
X143905093Y-103071829D01*
X144010568Y-103221730D01*
X144086809Y-103386737D01*
X144132654Y-103562055D01*
X144146938Y-103742887D01*
X144128497Y-103924439D01*
X144076168Y-104101915D01*
X143988786Y-104270518D01*
X143865189Y-104425453D01*
X143835951Y-104454444D01*
X143673303Y-104581679D01*
X143493353Y-104671797D01*
X143300905Y-104723499D01*
X143100763Y-104735482D01*
X142901515Y-104707373D01*
X142714443Y-104640976D01*
X142545712Y-104539452D01*
X142399801Y-104407674D01*
X142281188Y-104250513D01*
X142194354Y-104072842D01*
X142144454Y-103883835D01*
X142134796Y-103696534D01*
X142161931Y-103505430D01*
X142222752Y-103320436D01*
X142314152Y-103151467D01*
X142412211Y-103029250D01*
X142514744Y-102922890D01*
X142509132Y-102307588D01*
X142503521Y-101692287D01*
X143328921Y-101692287D01*
X143334582Y-102213836D01*
G36*
X147584160Y-102920554D02*
G01*
X147667345Y-102865505D01*
X147736222Y-102827603D01*
X147822175Y-102790389D01*
X147873720Y-102772351D01*
X147996910Y-102734246D01*
X148002572Y-102213267D01*
X148008233Y-101692287D01*
X148834154Y-101692287D01*
X148832362Y-102318505D01*
X148830571Y-102944723D01*
X148923220Y-103043773D01*
X149047307Y-103202167D01*
X149132272Y-103372131D01*
X149180036Y-103558607D01*
X149192827Y-103737088D01*
X149173086Y-103935100D01*
X149116662Y-104118833D01*
X149027756Y-104284994D01*
X148910566Y-104430294D01*
X148769294Y-104551440D01*
X148608138Y-104645142D01*
X148431299Y-104708108D01*
X148242977Y-104737047D01*
X148047370Y-104728668D01*
X147951092Y-104710175D01*
X147777766Y-104648354D01*
X147612516Y-104552249D01*
X147465370Y-104429281D01*
X147346357Y-104286875D01*
X147317478Y-104241197D01*
X147235826Y-104061553D01*
X147192198Y-103871198D01*
X147185841Y-103676407D01*
X147216004Y-103483457D01*
X147281933Y-103298621D01*
X147382876Y-103128174D01*
X147462382Y-103032828D01*
X147569134Y-102919954D01*
X146800994Y-102919954D01*
X146800994Y-101692287D01*
X147584160Y-101692287D01*
X147584160Y-102920554D01*
G37*
X147584160Y-102920554D02*
X147667345Y-102865505D01*
X147736222Y-102827603D01*
X147822175Y-102790389D01*
X147873720Y-102772351D01*
X147996910Y-102734246D01*
X148002572Y-102213267D01*
X148008233Y-101692287D01*
X148834154Y-101692287D01*
X148832362Y-102318505D01*
X148830571Y-102944723D01*
X148923220Y-103043773D01*
X149047307Y-103202167D01*
X149132272Y-103372131D01*
X149180036Y-103558607D01*
X149192827Y-103737088D01*
X149173086Y-103935100D01*
X149116662Y-104118833D01*
X149027756Y-104284994D01*
X148910566Y-104430294D01*
X148769294Y-104551440D01*
X148608138Y-104645142D01*
X148431299Y-104708108D01*
X148242977Y-104737047D01*
X148047370Y-104728668D01*
X147951092Y-104710175D01*
X147777766Y-104648354D01*
X147612516Y-104552249D01*
X147465370Y-104429281D01*
X147346357Y-104286875D01*
X147317478Y-104241197D01*
X147235826Y-104061553D01*
X147192198Y-103871198D01*
X147185841Y-103676407D01*
X147216004Y-103483457D01*
X147281933Y-103298621D01*
X147382876Y-103128174D01*
X147462382Y-103032828D01*
X147569134Y-102919954D01*
X146800994Y-102919954D01*
X146800994Y-101692287D01*
X147584160Y-101692287D01*
X147584160Y-102920554D01*
G36*
X141602032Y-101488539D02*
G01*
X141777197Y-101546954D01*
X141888205Y-101606259D01*
X142040519Y-101728035D01*
X142169753Y-101879887D01*
X142269765Y-102053096D01*
X142334412Y-102238939D01*
X142334714Y-102240215D01*
X142351321Y-102364954D01*
X142350758Y-102510038D01*
X142334310Y-102657713D01*
X142303266Y-102790227D01*
X142292594Y-102820983D01*
X142210805Y-102982951D01*
X142096218Y-103132436D01*
X141957049Y-103261496D01*
X141801516Y-103362187D01*
X141678660Y-103414446D01*
X141561642Y-103442260D01*
X141425203Y-103458196D01*
X141286400Y-103461436D01*
X141162287Y-103451162D01*
X141114259Y-103441528D01*
X140923236Y-103372114D01*
X140751933Y-103268486D01*
X140604892Y-103135105D01*
X140486658Y-102976432D01*
X140401772Y-102796929D01*
X140377607Y-102718130D01*
X140346853Y-102521115D01*
X140355092Y-102326454D01*
X140399531Y-102139242D01*
X140477380Y-101964571D01*
X140585846Y-101807533D01*
X140722138Y-101673222D01*
X140883465Y-101566731D01*
X141045585Y-101499555D01*
X141224921Y-101463408D01*
X141414172Y-101460213D01*
X141602032Y-101488539D01*
G37*
X141602032Y-101488539D02*
X141777197Y-101546954D01*
X141888205Y-101606259D01*
X142040519Y-101728035D01*
X142169753Y-101879887D01*
X142269765Y-102053096D01*
X142334412Y-102238939D01*
X142334714Y-102240215D01*
X142351321Y-102364954D01*
X142350758Y-102510038D01*
X142334310Y-102657713D01*
X142303266Y-102790227D01*
X142292594Y-102820983D01*
X142210805Y-102982951D01*
X142096218Y-103132436D01*
X141957049Y-103261496D01*
X141801516Y-103362187D01*
X141678660Y-103414446D01*
X141561642Y-103442260D01*
X141425203Y-103458196D01*
X141286400Y-103461436D01*
X141162287Y-103451162D01*
X141114259Y-103441528D01*
X140923236Y-103372114D01*
X140751933Y-103268486D01*
X140604892Y-103135105D01*
X140486658Y-102976432D01*
X140401772Y-102796929D01*
X140377607Y-102718130D01*
X140346853Y-102521115D01*
X140355092Y-102326454D01*
X140399531Y-102139242D01*
X140477380Y-101964571D01*
X140585846Y-101807533D01*
X140722138Y-101673222D01*
X140883465Y-101566731D01*
X141045585Y-101499555D01*
X141224921Y-101463408D01*
X141414172Y-101460213D01*
X141602032Y-101488539D01*
G36*
X150135395Y-101468475D02*
G01*
X150310571Y-101504185D01*
X150469243Y-101572918D01*
X150619322Y-101677518D01*
X150678605Y-101729931D01*
X150810722Y-101880873D01*
X150907509Y-102049975D01*
X150968764Y-102231765D01*
X150994279Y-102420771D01*
X150983852Y-102611520D01*
X150937275Y-102798541D01*
X150854344Y-102976363D01*
X150734855Y-103139511D01*
X150731575Y-103143158D01*
X150589992Y-103269793D01*
X150424404Y-103367187D01*
X150242796Y-103432952D01*
X150053157Y-103464701D01*
X149863472Y-103460045D01*
X149747517Y-103437338D01*
X149552639Y-103365267D01*
X149381979Y-103259547D01*
X149279839Y-103169526D01*
X149151665Y-103013824D01*
X149060270Y-102843730D01*
X149004775Y-102664193D01*
X148984304Y-102480165D01*
X148997979Y-102296595D01*
X149044923Y-102118433D01*
X149124257Y-101950628D01*
X149235104Y-101798132D01*
X149376586Y-101665894D01*
X149547827Y-101558864D01*
X149567051Y-101549502D01*
X149652085Y-101511175D01*
X149721566Y-101486993D01*
X149792031Y-101473074D01*
X149880014Y-101465536D01*
X149935805Y-101462945D01*
X150135395Y-101468475D01*
G37*
X150135395Y-101468475D02*
X150310571Y-101504185D01*
X150469243Y-101572918D01*
X150619322Y-101677518D01*
X150678605Y-101729931D01*
X150810722Y-101880873D01*
X150907509Y-102049975D01*
X150968764Y-102231765D01*
X150994279Y-102420771D01*
X150983852Y-102611520D01*
X150937275Y-102798541D01*
X150854344Y-102976363D01*
X150734855Y-103139511D01*
X150731575Y-103143158D01*
X150589992Y-103269793D01*
X150424404Y-103367187D01*
X150242796Y-103432952D01*
X150053157Y-103464701D01*
X149863472Y-103460045D01*
X149747517Y-103437338D01*
X149552639Y-103365267D01*
X149381979Y-103259547D01*
X149279839Y-103169526D01*
X149151665Y-103013824D01*
X149060270Y-102843730D01*
X149004775Y-102664193D01*
X148984304Y-102480165D01*
X148997979Y-102296595D01*
X149044923Y-102118433D01*
X149124257Y-101950628D01*
X149235104Y-101798132D01*
X149376586Y-101665894D01*
X149547827Y-101558864D01*
X149567051Y-101549502D01*
X149652085Y-101511175D01*
X149721566Y-101486993D01*
X149792031Y-101473074D01*
X149880014Y-101465536D01*
X149935805Y-101462945D01*
X150135395Y-101468475D01*
G36*
X144536160Y-102919954D02*
G01*
X143752994Y-102919954D01*
X143752994Y-101692287D01*
X144536160Y-101692287D01*
X144536160Y-102919954D01*
G37*
X144536160Y-102919954D02*
X143752994Y-102919954D01*
X143752994Y-101692287D01*
X144536160Y-101692287D01*
X144536160Y-102919954D01*
G36*
X145530994Y-102919954D02*
G01*
X144811327Y-102919954D01*
X144811327Y-101692287D01*
X145530994Y-101692287D01*
X145530994Y-102919954D01*
G37*
X145530994Y-102919954D02*
X144811327Y-102919954D01*
X144811327Y-101692287D01*
X145530994Y-101692287D01*
X145530994Y-102919954D01*
G36*
X146525827Y-102919954D02*
G01*
X145806160Y-102919954D01*
X145806160Y-101692287D01*
X146525827Y-101692287D01*
X146525827Y-102919954D01*
G37*
X146525827Y-102919954D02*
X145806160Y-102919954D01*
X145806160Y-101692287D01*
X146525827Y-101692287D01*
X146525827Y-102919954D01*
G36*
X148805538Y-98261776D02*
G01*
X149001836Y-98320177D01*
X149180224Y-98416476D01*
X149338721Y-98549822D01*
X149357530Y-98569586D01*
X149482878Y-98728485D01*
X149571483Y-98898780D01*
X149628930Y-99091221D01*
X149629200Y-99092501D01*
X149650945Y-99291670D01*
X149633983Y-99484391D01*
X149581854Y-99666921D01*
X149498100Y-99835519D01*
X149386259Y-99986441D01*
X149249872Y-100115945D01*
X149092479Y-100220288D01*
X148917620Y-100295727D01*
X148728836Y-100338520D01*
X148529667Y-100344925D01*
X148451994Y-100337038D01*
X148250820Y-100288973D01*
X148067555Y-100205588D01*
X147905826Y-100091012D01*
X147769261Y-99949373D01*
X147661488Y-99784801D01*
X147586135Y-99601423D01*
X147546829Y-99403369D01*
X147541827Y-99301227D01*
X147561401Y-99090315D01*
X147617842Y-98894992D01*
X147707729Y-98718706D01*
X147827641Y-98564901D01*
X147974158Y-98437023D01*
X148143859Y-98338517D01*
X148333323Y-98272830D01*
X148539130Y-98243406D01*
X148593309Y-98242120D01*
X148805538Y-98261776D01*
G37*
X148805538Y-98261776D02*
X149001836Y-98320177D01*
X149180224Y-98416476D01*
X149338721Y-98549822D01*
X149357530Y-98569586D01*
X149482878Y-98728485D01*
X149571483Y-98898780D01*
X149628930Y-99091221D01*
X149629200Y-99092501D01*
X149650945Y-99291670D01*
X149633983Y-99484391D01*
X149581854Y-99666921D01*
X149498100Y-99835519D01*
X149386259Y-99986441D01*
X149249872Y-100115945D01*
X149092479Y-100220288D01*
X148917620Y-100295727D01*
X148728836Y-100338520D01*
X148529667Y-100344925D01*
X148451994Y-100337038D01*
X148250820Y-100288973D01*
X148067555Y-100205588D01*
X147905826Y-100091012D01*
X147769261Y-99949373D01*
X147661488Y-99784801D01*
X147586135Y-99601423D01*
X147546829Y-99403369D01*
X147541827Y-99301227D01*
X147561401Y-99090315D01*
X147617842Y-98894992D01*
X147707729Y-98718706D01*
X147827641Y-98564901D01*
X147974158Y-98437023D01*
X148143859Y-98338517D01*
X148333323Y-98272830D01*
X148539130Y-98243406D01*
X148593309Y-98242120D01*
X148805538Y-98261776D01*
G36*
X142831046Y-97265194D02*
G01*
X143021526Y-97319813D01*
X143195296Y-97412490D01*
X143355635Y-97544569D01*
X143363187Y-97552061D01*
X143498309Y-97712198D01*
X143593427Y-97883887D01*
X143650177Y-98071051D01*
X143670195Y-98277613D01*
X143670261Y-98288480D01*
X143667613Y-98385556D01*
X143660252Y-98478057D01*
X143649631Y-98549122D01*
X143646786Y-98561009D01*
X143578735Y-98739343D01*
X143476011Y-98909590D01*
X143346212Y-99061411D01*
X143196938Y-99184463D01*
X143180870Y-99195020D01*
X143018616Y-99276448D01*
X142835634Y-99329772D01*
X142644709Y-99352756D01*
X142458624Y-99343162D01*
X142398327Y-99331991D01*
X142195938Y-99265701D01*
X142014169Y-99162828D01*
X141855129Y-99024859D01*
X141721830Y-98854681D01*
X141632986Y-98678397D01*
X141581493Y-98482494D01*
X141568306Y-98309367D01*
X142553085Y-98309367D01*
X142568637Y-98338548D01*
X142610919Y-98363680D01*
X142655927Y-98350394D01*
X142681449Y-98321892D01*
X142692019Y-98284428D01*
X142669484Y-98250206D01*
X142626046Y-98227996D01*
X142584877Y-98236838D01*
X142556912Y-98267155D01*
X142553085Y-98309367D01*
X141568306Y-98309367D01*
X141567214Y-98295037D01*
X141584793Y-98087256D01*
X141638444Y-97899529D01*
X141730172Y-97726771D01*
X141851607Y-97574876D01*
X142008707Y-97436307D01*
X142185200Y-97335236D01*
X142379895Y-97272173D01*
X142591602Y-97247623D01*
X142620577Y-97247287D01*
X142831046Y-97265194D01*
G37*
X142831046Y-97265194D02*
X143021526Y-97319813D01*
X143195296Y-97412490D01*
X143355635Y-97544569D01*
X143363187Y-97552061D01*
X143498309Y-97712198D01*
X143593427Y-97883887D01*
X143650177Y-98071051D01*
X143670195Y-98277613D01*
X143670261Y-98288480D01*
X143667613Y-98385556D01*
X143660252Y-98478057D01*
X143649631Y-98549122D01*
X143646786Y-98561009D01*
X143578735Y-98739343D01*
X143476011Y-98909590D01*
X143346212Y-99061411D01*
X143196938Y-99184463D01*
X143180870Y-99195020D01*
X143018616Y-99276448D01*
X142835634Y-99329772D01*
X142644709Y-99352756D01*
X142458624Y-99343162D01*
X142398327Y-99331991D01*
X142195938Y-99265701D01*
X142014169Y-99162828D01*
X141855129Y-99024859D01*
X141721830Y-98854681D01*
X141632986Y-98678397D01*
X141581493Y-98482494D01*
X141568306Y-98309367D01*
X142553085Y-98309367D01*
X142568637Y-98338548D01*
X142610919Y-98363680D01*
X142655927Y-98350394D01*
X142681449Y-98321892D01*
X142692019Y-98284428D01*
X142669484Y-98250206D01*
X142626046Y-98227996D01*
X142584877Y-98236838D01*
X142556912Y-98267155D01*
X142553085Y-98309367D01*
X141568306Y-98309367D01*
X141567214Y-98295037D01*
X141584793Y-98087256D01*
X141638444Y-97899529D01*
X141730172Y-97726771D01*
X141851607Y-97574876D01*
X142008707Y-97436307D01*
X142185200Y-97335236D01*
X142379895Y-97272173D01*
X142591602Y-97247623D01*
X142620577Y-97247287D01*
X142831046Y-97265194D01*
G36*
X145959115Y-95510101D02*
G01*
X146064319Y-95535362D01*
X146298885Y-95621605D01*
X146511748Y-95743177D01*
X146700398Y-95897679D01*
X146862326Y-96082707D01*
X146995023Y-96295860D01*
X147089932Y-96517037D01*
X147113946Y-96589736D01*
X147130385Y-96652638D01*
X147140644Y-96716847D01*
X147146115Y-96793468D01*
X147148193Y-96893606D01*
X147148377Y-96982704D01*
X147147331Y-97107926D01*
X147143714Y-97202050D01*
X147136175Y-97276291D01*
X147123367Y-97341867D01*
X147103940Y-97409994D01*
X147092947Y-97443672D01*
X146993001Y-97678276D01*
X146859109Y-97889273D01*
X146694140Y-98073964D01*
X146500959Y-98229645D01*
X146282435Y-98353615D01*
X146041434Y-98443173D01*
X146028410Y-98446819D01*
X145915574Y-98468919D01*
X145777950Y-98482495D01*
X145631439Y-98487115D01*
X145491941Y-98482348D01*
X145375357Y-98467764D01*
X145361660Y-98464889D01*
X145110031Y-98388200D01*
X144881158Y-98276117D01*
X144675969Y-98129174D01*
X144530215Y-97987676D01*
X144385193Y-97796783D01*
X144274673Y-97585822D01*
X144199274Y-97360106D01*
X144159618Y-97124950D01*
X144158245Y-97025161D01*
X145296048Y-97025161D01*
X145323953Y-97126983D01*
X145378486Y-97216610D01*
X145454711Y-97288165D01*
X145547692Y-97335771D01*
X145652494Y-97353551D01*
X145764183Y-97335628D01*
X145778324Y-97330607D01*
X145878859Y-97272669D01*
X145952918Y-97189975D01*
X145998939Y-97090835D01*
X146015362Y-96983558D01*
X146000625Y-96876454D01*
X145953166Y-96777833D01*
X145894243Y-96713659D01*
X145787687Y-96648136D01*
X145675121Y-96620880D01*
X145563879Y-96630638D01*
X145461294Y-96676156D01*
X145374700Y-96756180D01*
X145339858Y-96808444D01*
X145299704Y-96917022D01*
X145296048Y-97025161D01*
X144158245Y-97025161D01*
X144156324Y-96885666D01*
X144190014Y-96647567D01*
X144261307Y-96415967D01*
X144329487Y-96268828D01*
X144462489Y-96062002D01*
X144624169Y-95883587D01*
X144810289Y-95735377D01*
X145016608Y-95619162D01*
X145238890Y-95536734D01*
X145472894Y-95489887D01*
X145714382Y-95480412D01*
X145959115Y-95510101D01*
G37*
X145959115Y-95510101D02*
X146064319Y-95535362D01*
X146298885Y-95621605D01*
X146511748Y-95743177D01*
X146700398Y-95897679D01*
X146862326Y-96082707D01*
X146995023Y-96295860D01*
X147089932Y-96517037D01*
X147113946Y-96589736D01*
X147130385Y-96652638D01*
X147140644Y-96716847D01*
X147146115Y-96793468D01*
X147148193Y-96893606D01*
X147148377Y-96982704D01*
X147147331Y-97107926D01*
X147143714Y-97202050D01*
X147136175Y-97276291D01*
X147123367Y-97341867D01*
X147103940Y-97409994D01*
X147092947Y-97443672D01*
X146993001Y-97678276D01*
X146859109Y-97889273D01*
X146694140Y-98073964D01*
X146500959Y-98229645D01*
X146282435Y-98353615D01*
X146041434Y-98443173D01*
X146028410Y-98446819D01*
X145915574Y-98468919D01*
X145777950Y-98482495D01*
X145631439Y-98487115D01*
X145491941Y-98482348D01*
X145375357Y-98467764D01*
X145361660Y-98464889D01*
X145110031Y-98388200D01*
X144881158Y-98276117D01*
X144675969Y-98129174D01*
X144530215Y-97987676D01*
X144385193Y-97796783D01*
X144274673Y-97585822D01*
X144199274Y-97360106D01*
X144159618Y-97124950D01*
X144158245Y-97025161D01*
X145296048Y-97025161D01*
X145323953Y-97126983D01*
X145378486Y-97216610D01*
X145454711Y-97288165D01*
X145547692Y-97335771D01*
X145652494Y-97353551D01*
X145764183Y-97335628D01*
X145778324Y-97330607D01*
X145878859Y-97272669D01*
X145952918Y-97189975D01*
X145998939Y-97090835D01*
X146015362Y-96983558D01*
X146000625Y-96876454D01*
X145953166Y-96777833D01*
X145894243Y-96713659D01*
X145787687Y-96648136D01*
X145675121Y-96620880D01*
X145563879Y-96630638D01*
X145461294Y-96676156D01*
X145374700Y-96756180D01*
X145339858Y-96808444D01*
X145299704Y-96917022D01*
X145296048Y-97025161D01*
X144158245Y-97025161D01*
X144156324Y-96885666D01*
X144190014Y-96647567D01*
X144261307Y-96415967D01*
X144329487Y-96268828D01*
X144462489Y-96062002D01*
X144624169Y-95883587D01*
X144810289Y-95735377D01*
X145016608Y-95619162D01*
X145238890Y-95536734D01*
X145472894Y-95489887D01*
X145714382Y-95480412D01*
X145959115Y-95510101D01*
%TO.C,R2*%
D14*
X147054913Y-102347000D02*
X146721580Y-101870810D01*
X146483484Y-102347000D02*
X146483484Y-101347000D01*
X146864437Y-101347000D01*
X146959675Y-101394620D01*
X147007294Y-101442239D01*
X147054913Y-101537477D01*
X147054913Y-101680334D01*
X147007294Y-101775572D01*
X146959675Y-101823191D01*
X146864437Y-101870810D01*
X146483484Y-101870810D01*
X147435865Y-101442239D02*
X147483484Y-101394620D01*
X147578722Y-101347000D01*
X147816818Y-101347000D01*
X147912056Y-101394620D01*
X147959675Y-101442239D01*
X148007294Y-101537477D01*
X148007294Y-101632715D01*
X147959675Y-101775572D01*
X147388246Y-102347000D01*
X148007294Y-102347000D01*
%TO.C,R1*%
X143578913Y-99474300D02*
X143245580Y-98998110D01*
X143007484Y-99474300D02*
X143007484Y-98474300D01*
X143388437Y-98474300D01*
X143483675Y-98521920D01*
X143531294Y-98569539D01*
X143578913Y-98664777D01*
X143578913Y-98807634D01*
X143531294Y-98902872D01*
X143483675Y-98950491D01*
X143388437Y-98998110D01*
X143007484Y-98998110D01*
X144531294Y-99474300D02*
X143959865Y-99474300D01*
X144245580Y-99474300D02*
X144245580Y-98474300D01*
X144150341Y-98617158D01*
X144055103Y-98712396D01*
X143959865Y-98760015D01*
%TD*%
M02*
